<mxfile host="app.diagrams.net" modified="2024-04-10T10:54:53.332Z" agent="Mozilla/5.0 (Windows NT 10.0; Win64; x64) AppleWebKit/537.36 (KHTML, like Gecko) Chrome/123.0.0.0 Safari/537.36" etag="qjj2NnTn4quKcqqP3Csj" version="24.2.2" type="github">
  <diagram id="C5RBs43oDa-KdzZeNtuy" name="Page-1">
    <mxGraphModel dx="2074" dy="1140" grid="1" gridSize="10" guides="1" tooltips="1" connect="1" arrows="1" fold="1" page="1" pageScale="1" pageWidth="827" pageHeight="1169" math="0" shadow="0">
      <root>
        <mxCell id="WIyWlLk6GJQsqaUBKTNV-0" />
        <mxCell id="WIyWlLk6GJQsqaUBKTNV-1" parent="WIyWlLk6GJQsqaUBKTNV-0" />
        <mxCell id="A2TOZu_Xy9KHBicVUskc-5" style="edgeStyle=orthogonalEdgeStyle;rounded=0;orthogonalLoop=1;jettySize=auto;html=1;exitX=0.5;exitY=1;exitDx=0;exitDy=0;entryX=0.5;entryY=0;entryDx=0;entryDy=0;" edge="1" parent="WIyWlLk6GJQsqaUBKTNV-1" source="A2TOZu_Xy9KHBicVUskc-0" target="A2TOZu_Xy9KHBicVUskc-1">
          <mxGeometry relative="1" as="geometry">
            <mxPoint x="140.33333333333348" y="110" as="targetPoint" />
          </mxGeometry>
        </mxCell>
        <mxCell id="A2TOZu_Xy9KHBicVUskc-0" value="Command = 3" style="ellipse;whiteSpace=wrap;html=1;" vertex="1" parent="WIyWlLk6GJQsqaUBKTNV-1">
          <mxGeometry x="85" y="10" width="100" height="60" as="geometry" />
        </mxCell>
        <mxCell id="A2TOZu_Xy9KHBicVUskc-12" style="edgeStyle=orthogonalEdgeStyle;rounded=0;orthogonalLoop=1;jettySize=auto;html=1;exitX=0.5;exitY=1;exitDx=0;exitDy=0;entryX=0.5;entryY=0;entryDx=0;entryDy=0;" edge="1" parent="WIyWlLk6GJQsqaUBKTNV-1" source="A2TOZu_Xy9KHBicVUskc-1" target="A2TOZu_Xy9KHBicVUskc-11">
          <mxGeometry relative="1" as="geometry" />
        </mxCell>
        <mxCell id="A2TOZu_Xy9KHBicVUskc-1" value="Input game title" style="shape=parallelogram;perimeter=parallelogramPerimeter;whiteSpace=wrap;html=1;fixedSize=1;" vertex="1" parent="WIyWlLk6GJQsqaUBKTNV-1">
          <mxGeometry x="80" y="120" width="110" height="50" as="geometry" />
        </mxCell>
        <mxCell id="A2TOZu_Xy9KHBicVUskc-14" style="edgeStyle=orthogonalEdgeStyle;rounded=0;orthogonalLoop=1;jettySize=auto;html=1;exitX=1;exitY=0.5;exitDx=0;exitDy=0;" edge="1" parent="WIyWlLk6GJQsqaUBKTNV-1" source="A2TOZu_Xy9KHBicVUskc-11" target="A2TOZu_Xy9KHBicVUskc-13">
          <mxGeometry relative="1" as="geometry" />
        </mxCell>
        <mxCell id="A2TOZu_Xy9KHBicVUskc-27" style="edgeStyle=orthogonalEdgeStyle;rounded=0;orthogonalLoop=1;jettySize=auto;html=1;exitX=0.5;exitY=1;exitDx=0;exitDy=0;entryX=0.5;entryY=1;entryDx=0;entryDy=0;" edge="1" parent="WIyWlLk6GJQsqaUBKTNV-1" source="A2TOZu_Xy9KHBicVUskc-11" target="A2TOZu_Xy9KHBicVUskc-11">
          <mxGeometry relative="1" as="geometry">
            <mxPoint x="135" y="380" as="targetPoint" />
          </mxGeometry>
        </mxCell>
        <mxCell id="A2TOZu_Xy9KHBicVUskc-35" style="edgeStyle=orthogonalEdgeStyle;rounded=0;orthogonalLoop=1;jettySize=auto;html=1;exitX=0.5;exitY=1;exitDx=0;exitDy=0;entryX=0.5;entryY=0;entryDx=0;entryDy=0;" edge="1" parent="WIyWlLk6GJQsqaUBKTNV-1" source="A2TOZu_Xy9KHBicVUskc-11" target="A2TOZu_Xy9KHBicVUskc-34">
          <mxGeometry relative="1" as="geometry" />
        </mxCell>
        <mxCell id="A2TOZu_Xy9KHBicVUskc-11" value="Valid title" style="rhombus;whiteSpace=wrap;html=1;" vertex="1" parent="WIyWlLk6GJQsqaUBKTNV-1">
          <mxGeometry x="95" y="210" width="80" height="80" as="geometry" />
        </mxCell>
        <mxCell id="A2TOZu_Xy9KHBicVUskc-16" style="edgeStyle=orthogonalEdgeStyle;rounded=0;orthogonalLoop=1;jettySize=auto;html=1;exitX=0.5;exitY=1;exitDx=0;exitDy=0;entryX=0.5;entryY=0;entryDx=0;entryDy=0;" edge="1" parent="WIyWlLk6GJQsqaUBKTNV-1" source="A2TOZu_Xy9KHBicVUskc-13" target="A2TOZu_Xy9KHBicVUskc-15">
          <mxGeometry relative="1" as="geometry" />
        </mxCell>
        <mxCell id="A2TOZu_Xy9KHBicVUskc-13" value="Invalid title" style="shape=parallelogram;perimeter=parallelogramPerimeter;whiteSpace=wrap;html=1;fixedSize=1;" vertex="1" parent="WIyWlLk6GJQsqaUBKTNV-1">
          <mxGeometry x="220" y="225" width="110" height="50" as="geometry" />
        </mxCell>
        <mxCell id="A2TOZu_Xy9KHBicVUskc-15" value="End" style="ellipse;whiteSpace=wrap;html=1;" vertex="1" parent="WIyWlLk6GJQsqaUBKTNV-1">
          <mxGeometry x="225" y="300" width="100" height="60" as="geometry" />
        </mxCell>
        <mxCell id="A2TOZu_Xy9KHBicVUskc-17" style="edgeStyle=orthogonalEdgeStyle;rounded=0;orthogonalLoop=1;jettySize=auto;html=1;exitX=1;exitY=0.5;exitDx=0;exitDy=0;" edge="1" parent="WIyWlLk6GJQsqaUBKTNV-1" source="A2TOZu_Xy9KHBicVUskc-18" target="A2TOZu_Xy9KHBicVUskc-20">
          <mxGeometry relative="1" as="geometry" />
        </mxCell>
        <mxCell id="A2TOZu_Xy9KHBicVUskc-18" value="Valid genre" style="rhombus;whiteSpace=wrap;html=1;" vertex="1" parent="WIyWlLk6GJQsqaUBKTNV-1">
          <mxGeometry x="95" y="430" width="80" height="80" as="geometry" />
        </mxCell>
        <mxCell id="A2TOZu_Xy9KHBicVUskc-19" style="edgeStyle=orthogonalEdgeStyle;rounded=0;orthogonalLoop=1;jettySize=auto;html=1;exitX=0.5;exitY=1;exitDx=0;exitDy=0;entryX=0.5;entryY=0;entryDx=0;entryDy=0;" edge="1" parent="WIyWlLk6GJQsqaUBKTNV-1" source="A2TOZu_Xy9KHBicVUskc-20" target="A2TOZu_Xy9KHBicVUskc-21">
          <mxGeometry relative="1" as="geometry" />
        </mxCell>
        <mxCell id="A2TOZu_Xy9KHBicVUskc-20" value="Invalid genre" style="shape=parallelogram;perimeter=parallelogramPerimeter;whiteSpace=wrap;html=1;fixedSize=1;" vertex="1" parent="WIyWlLk6GJQsqaUBKTNV-1">
          <mxGeometry x="215" y="445" width="110" height="50" as="geometry" />
        </mxCell>
        <mxCell id="A2TOZu_Xy9KHBicVUskc-21" value="End" style="ellipse;whiteSpace=wrap;html=1;" vertex="1" parent="WIyWlLk6GJQsqaUBKTNV-1">
          <mxGeometry x="225" y="525" width="100" height="60" as="geometry" />
        </mxCell>
        <mxCell id="A2TOZu_Xy9KHBicVUskc-31" value="Yes" style="text;html=1;align=center;verticalAlign=middle;whiteSpace=wrap;rounded=0;" vertex="1" parent="WIyWlLk6GJQsqaUBKTNV-1">
          <mxGeometry x="80" y="720" width="60" height="30" as="geometry" />
        </mxCell>
        <mxCell id="A2TOZu_Xy9KHBicVUskc-32" value="Yes" style="text;html=1;align=center;verticalAlign=middle;whiteSpace=wrap;rounded=0;" vertex="1" parent="WIyWlLk6GJQsqaUBKTNV-1">
          <mxGeometry x="85" y="900" width="60" height="30" as="geometry" />
        </mxCell>
        <mxCell id="A2TOZu_Xy9KHBicVUskc-33" value="Yes" style="text;html=1;align=center;verticalAlign=middle;whiteSpace=wrap;rounded=0;" vertex="1" parent="WIyWlLk6GJQsqaUBKTNV-1">
          <mxGeometry x="70" y="290" width="60" height="30" as="geometry" />
        </mxCell>
        <mxCell id="A2TOZu_Xy9KHBicVUskc-36" style="edgeStyle=orthogonalEdgeStyle;rounded=0;orthogonalLoop=1;jettySize=auto;html=1;exitX=0.5;exitY=1;exitDx=0;exitDy=0;entryX=0.504;entryY=-0.049;entryDx=0;entryDy=0;entryPerimeter=0;" edge="1" parent="WIyWlLk6GJQsqaUBKTNV-1" source="A2TOZu_Xy9KHBicVUskc-34" target="A2TOZu_Xy9KHBicVUskc-18">
          <mxGeometry relative="1" as="geometry">
            <mxPoint x="134.8275862068965" y="420" as="targetPoint" />
          </mxGeometry>
        </mxCell>
        <mxCell id="A2TOZu_Xy9KHBicVUskc-34" value="Input game genre" style="shape=parallelogram;perimeter=parallelogramPerimeter;whiteSpace=wrap;html=1;fixedSize=1;" vertex="1" parent="WIyWlLk6GJQsqaUBKTNV-1">
          <mxGeometry x="80" y="340" width="110" height="50" as="geometry" />
        </mxCell>
        <mxCell id="A2TOZu_Xy9KHBicVUskc-37" style="edgeStyle=orthogonalEdgeStyle;rounded=0;orthogonalLoop=1;jettySize=auto;html=1;exitX=0.5;exitY=1;exitDx=0;exitDy=0;entryX=0.5;entryY=1;entryDx=0;entryDy=0;" edge="1" parent="WIyWlLk6GJQsqaUBKTNV-1">
          <mxGeometry relative="1" as="geometry">
            <mxPoint x="135" y="510" as="targetPoint" />
            <mxPoint x="135" y="510" as="sourcePoint" />
          </mxGeometry>
        </mxCell>
        <mxCell id="A2TOZu_Xy9KHBicVUskc-38" style="edgeStyle=orthogonalEdgeStyle;rounded=0;orthogonalLoop=1;jettySize=auto;html=1;exitX=0.5;exitY=1;exitDx=0;exitDy=0;entryX=0.5;entryY=0;entryDx=0;entryDy=0;" edge="1" parent="WIyWlLk6GJQsqaUBKTNV-1" target="A2TOZu_Xy9KHBicVUskc-48">
          <mxGeometry relative="1" as="geometry">
            <mxPoint x="135" y="510" as="sourcePoint" />
          </mxGeometry>
        </mxCell>
        <mxCell id="A2TOZu_Xy9KHBicVUskc-41" style="edgeStyle=orthogonalEdgeStyle;rounded=0;orthogonalLoop=1;jettySize=auto;html=1;exitX=1;exitY=0.5;exitDx=0;exitDy=0;" edge="1" parent="WIyWlLk6GJQsqaUBKTNV-1" source="A2TOZu_Xy9KHBicVUskc-42" target="A2TOZu_Xy9KHBicVUskc-44">
          <mxGeometry relative="1" as="geometry" />
        </mxCell>
        <mxCell id="A2TOZu_Xy9KHBicVUskc-54" style="edgeStyle=orthogonalEdgeStyle;rounded=0;orthogonalLoop=1;jettySize=auto;html=1;exitX=0.5;exitY=1;exitDx=0;exitDy=0;entryX=0.5;entryY=0;entryDx=0;entryDy=0;" edge="1" parent="WIyWlLk6GJQsqaUBKTNV-1" source="A2TOZu_Xy9KHBicVUskc-42" target="A2TOZu_Xy9KHBicVUskc-53">
          <mxGeometry relative="1" as="geometry" />
        </mxCell>
        <mxCell id="A2TOZu_Xy9KHBicVUskc-42" value="Valid type" style="rhombus;whiteSpace=wrap;html=1;" vertex="1" parent="WIyWlLk6GJQsqaUBKTNV-1">
          <mxGeometry x="95" y="650" width="80" height="80" as="geometry" />
        </mxCell>
        <mxCell id="A2TOZu_Xy9KHBicVUskc-43" style="edgeStyle=orthogonalEdgeStyle;rounded=0;orthogonalLoop=1;jettySize=auto;html=1;exitX=0.5;exitY=1;exitDx=0;exitDy=0;entryX=0.5;entryY=0;entryDx=0;entryDy=0;" edge="1" parent="WIyWlLk6GJQsqaUBKTNV-1" source="A2TOZu_Xy9KHBicVUskc-44" target="A2TOZu_Xy9KHBicVUskc-45">
          <mxGeometry relative="1" as="geometry" />
        </mxCell>
        <mxCell id="A2TOZu_Xy9KHBicVUskc-44" value="Invalid type" style="shape=parallelogram;perimeter=parallelogramPerimeter;whiteSpace=wrap;html=1;fixedSize=1;" vertex="1" parent="WIyWlLk6GJQsqaUBKTNV-1">
          <mxGeometry x="215" y="665" width="110" height="50" as="geometry" />
        </mxCell>
        <mxCell id="A2TOZu_Xy9KHBicVUskc-45" value="End" style="ellipse;whiteSpace=wrap;html=1;" vertex="1" parent="WIyWlLk6GJQsqaUBKTNV-1">
          <mxGeometry x="225" y="740" width="100" height="60" as="geometry" />
        </mxCell>
        <mxCell id="A2TOZu_Xy9KHBicVUskc-46" value="Yes" style="text;html=1;align=center;verticalAlign=middle;whiteSpace=wrap;rounded=0;" vertex="1" parent="WIyWlLk6GJQsqaUBKTNV-1">
          <mxGeometry x="70" y="510" width="60" height="30" as="geometry" />
        </mxCell>
        <mxCell id="A2TOZu_Xy9KHBicVUskc-47" style="edgeStyle=orthogonalEdgeStyle;rounded=0;orthogonalLoop=1;jettySize=auto;html=1;exitX=0.5;exitY=1;exitDx=0;exitDy=0;entryX=0.5;entryY=0;entryDx=0;entryDy=0;" edge="1" parent="WIyWlLk6GJQsqaUBKTNV-1" source="A2TOZu_Xy9KHBicVUskc-48" target="A2TOZu_Xy9KHBicVUskc-42">
          <mxGeometry relative="1" as="geometry">
            <mxPoint x="134.8275862068965" y="640" as="targetPoint" />
          </mxGeometry>
        </mxCell>
        <mxCell id="A2TOZu_Xy9KHBicVUskc-48" value="Input game type" style="shape=parallelogram;perimeter=parallelogramPerimeter;whiteSpace=wrap;html=1;fixedSize=1;" vertex="1" parent="WIyWlLk6GJQsqaUBKTNV-1">
          <mxGeometry x="80" y="560" width="110" height="50" as="geometry" />
        </mxCell>
        <mxCell id="A2TOZu_Xy9KHBicVUskc-49" value="No" style="text;html=1;align=center;verticalAlign=middle;whiteSpace=wrap;rounded=0;" vertex="1" parent="WIyWlLk6GJQsqaUBKTNV-1">
          <mxGeometry x="165" y="445" width="60" height="30" as="geometry" />
        </mxCell>
        <mxCell id="A2TOZu_Xy9KHBicVUskc-50" value="No" style="text;html=1;align=center;verticalAlign=middle;whiteSpace=wrap;rounded=0;" vertex="1" parent="WIyWlLk6GJQsqaUBKTNV-1">
          <mxGeometry x="160" y="660" width="60" height="30" as="geometry" />
        </mxCell>
        <mxCell id="A2TOZu_Xy9KHBicVUskc-51" value="No" style="text;html=1;align=center;verticalAlign=middle;whiteSpace=wrap;rounded=0;" vertex="1" parent="WIyWlLk6GJQsqaUBKTNV-1">
          <mxGeometry x="165" y="225" width="60" height="30" as="geometry" />
        </mxCell>
        <mxCell id="A2TOZu_Xy9KHBicVUskc-53" value="Game in inv" style="rhombus;whiteSpace=wrap;html=1;" vertex="1" parent="WIyWlLk6GJQsqaUBKTNV-1">
          <mxGeometry x="95" y="825" width="80" height="80" as="geometry" />
        </mxCell>
        <mxCell id="A2TOZu_Xy9KHBicVUskc-56" style="edgeStyle=orthogonalEdgeStyle;rounded=0;orthogonalLoop=1;jettySize=auto;html=1;exitX=0.5;exitY=1;exitDx=0;exitDy=0;entryX=0.5;entryY=0;entryDx=0;entryDy=0;" edge="1" parent="WIyWlLk6GJQsqaUBKTNV-1" source="A2TOZu_Xy9KHBicVUskc-57" target="A2TOZu_Xy9KHBicVUskc-58">
          <mxGeometry relative="1" as="geometry" />
        </mxCell>
        <mxCell id="A2TOZu_Xy9KHBicVUskc-57" value="Game already in inventory" style="shape=parallelogram;perimeter=parallelogramPerimeter;whiteSpace=wrap;html=1;fixedSize=1;" vertex="1" parent="WIyWlLk6GJQsqaUBKTNV-1">
          <mxGeometry x="80" y="950" width="110" height="50" as="geometry" />
        </mxCell>
        <mxCell id="A2TOZu_Xy9KHBicVUskc-58" value="End" style="ellipse;whiteSpace=wrap;html=1;" vertex="1" parent="WIyWlLk6GJQsqaUBKTNV-1">
          <mxGeometry x="90" y="1025" width="100" height="60" as="geometry" />
        </mxCell>
        <mxCell id="A2TOZu_Xy9KHBicVUskc-60" style="edgeStyle=orthogonalEdgeStyle;rounded=0;orthogonalLoop=1;jettySize=auto;html=1;exitX=0.5;exitY=1;exitDx=0;exitDy=0;entryX=0.497;entryY=-0.067;entryDx=0;entryDy=0;entryPerimeter=0;" edge="1" parent="WIyWlLk6GJQsqaUBKTNV-1" source="A2TOZu_Xy9KHBicVUskc-53" target="A2TOZu_Xy9KHBicVUskc-57">
          <mxGeometry relative="1" as="geometry" />
        </mxCell>
        <mxCell id="A2TOZu_Xy9KHBicVUskc-61" style="edgeStyle=orthogonalEdgeStyle;rounded=0;orthogonalLoop=1;jettySize=auto;html=1;exitX=1;exitY=0.5;exitDx=0;exitDy=0;" edge="1" parent="WIyWlLk6GJQsqaUBKTNV-1" target="A2TOZu_Xy9KHBicVUskc-63">
          <mxGeometry relative="1" as="geometry">
            <mxPoint x="175" y="865" as="sourcePoint" />
          </mxGeometry>
        </mxCell>
        <mxCell id="A2TOZu_Xy9KHBicVUskc-62" style="edgeStyle=orthogonalEdgeStyle;rounded=0;orthogonalLoop=1;jettySize=auto;html=1;exitX=0.5;exitY=1;exitDx=0;exitDy=0;entryX=0.5;entryY=0;entryDx=0;entryDy=0;" edge="1" parent="WIyWlLk6GJQsqaUBKTNV-1" source="A2TOZu_Xy9KHBicVUskc-63" target="A2TOZu_Xy9KHBicVUskc-64">
          <mxGeometry relative="1" as="geometry" />
        </mxCell>
        <mxCell id="A2TOZu_Xy9KHBicVUskc-63" value="Game added to inventory" style="shape=parallelogram;perimeter=parallelogramPerimeter;whiteSpace=wrap;html=1;fixedSize=1;" vertex="1" parent="WIyWlLk6GJQsqaUBKTNV-1">
          <mxGeometry x="215" y="840" width="110" height="50" as="geometry" />
        </mxCell>
        <mxCell id="A2TOZu_Xy9KHBicVUskc-64" value="End" style="ellipse;whiteSpace=wrap;html=1;" vertex="1" parent="WIyWlLk6GJQsqaUBKTNV-1">
          <mxGeometry x="225" y="915" width="100" height="60" as="geometry" />
        </mxCell>
        <mxCell id="A2TOZu_Xy9KHBicVUskc-65" value="No" style="text;html=1;align=center;verticalAlign=middle;whiteSpace=wrap;rounded=0;" vertex="1" parent="WIyWlLk6GJQsqaUBKTNV-1">
          <mxGeometry x="155" y="840" width="60" height="30" as="geometry" />
        </mxCell>
      </root>
    </mxGraphModel>
  </diagram>
</mxfile>
